<svg
   width="11.892464"
   height="7.1787567"
   viewBox="0 0 11.892464 7.1787567"
   version="1.1"
   id="svg1"
   xml:space="preserve"
   xmlns="http://www.w3.org/2000/svg"
   xmlns:svg="http://www.w3.org/2000/svg">
     <path
     style="color:#000000;fill:#999999;stroke-linecap:round;stroke-linejoin:round;-inkscape-stroke:none"
     d="M 5.9472127,6.2500001e-7 A 0.750075,0.750075 0 0 0 5.3925247,0.24414063 L 0.19721272,5.9218706 a 0.75,0.75 0 0 0 0.04687,1.06055 0.75,0.75 0 0 0 1.06054598,-0.0488 l 4.642579,-5.07226 2.044921,2.23437 2.5976573,2.83789 a 0.75,0.75 0 0 0 1.058593,0.0488 0.75,0.75 0 0 0 0.04687,-1.06055 L 9.0975927,3.0820306 6.4999367,0.24414063 A 0.750075,0.750075 0 0 0 5.9472027,6.2500001e-7 Z"
     id="path5-83" />
</svg>
